<svg xmlns="http://www.w3.org/2000/svg" width="31.253" height="26.31" viewBox="0 0 31.253 26.31">
  <g id="cart_icon" data-name="cart icon" transform="translate(-3060.266 -1358.228)">
    <path id="Path_187" data-name="Path 187" d="M3243.639,1718.4a2.355,2.355,0,1,0-2.354,2.355A2.357,2.357,0,0,0,3243.639,1718.4Zm-3.9,0a1.544,1.544,0,1,1,1.545,1.545A1.546,1.546,0,0,1,3239.74,1718.4Z" transform="translate(-167.875 -336.343)" fill="#00101a" stroke="#00101a" stroke-width="0.25"/>
    <path id="Path_188" data-name="Path 188" d="M3449.827,1718.4a2.355,2.355,0,1,0-2.355,2.355A2.358,2.358,0,0,0,3449.827,1718.4Zm-3.9,0a1.545,1.545,0,1,1,1.545,1.545A1.546,1.546,0,0,1,3445.927,1718.4Z" transform="translate(-361.808 -336.343)" fill="#00101a" stroke="#00101a" stroke-width="0.25"/>
    <path id="Path_189" data-name="Path 189" d="M3090.992,1362.948h-22.606l-1.157-4.3a.4.4,0,0,0-.385-.295h-6.053a.4.4,0,1,0,0,.8h5.747l5.207,19.352a.4.4,0,0,0,.385.295h14.743a.4.4,0,1,0,0-.8h-14.437l-.8-2.984h15.24a.4.4,0,0,0,.375-.261l4.12-11.273a.4.4,0,0,0-.375-.534Zm-1.309,2.816h-12.864a.4.4,0,1,0,0,.8h12.573l-.74,2.025h-12.864a.4.4,0,1,0,0,.8h12.573l-.74,2.025h-12.864a.4.4,0,1,0,0,.8h12.573l-.739,2.021h-15.174l-2.819-10.478h21.822Z" fill="#00101a" stroke="#00101a" stroke-width="0.25"/>
  </g>
</svg>
